<mxfile host="Electron" agent="Mozilla/5.0 (Windows NT 10.0; Win64; x64) AppleWebKit/537.36 (KHTML, like Gecko) draw.io/24.7.17 Chrome/128.0.6613.36 Electron/32.0.1 Safari/537.36" version="24.7.17">
  <diagram name="Страница — 1" id="JIwFbgNnXK1ozLhvX6v1">
    <mxGraphModel dx="2503" dy="1172" grid="1" gridSize="10" guides="1" tooltips="1" connect="1" arrows="1" fold="1" page="1" pageScale="1" pageWidth="827" pageHeight="1169" math="0" shadow="0">
      <root>
        <mxCell id="0" />
        <mxCell id="1" parent="0" />
        <mxCell id="l8vhdtD7TwplGJHoD4nW-23" value="" style="endArrow=none;html=1;rounded=0;entryX=0.5;entryY=1;entryDx=0;entryDy=0;exitX=0.5;exitY=0;exitDx=0;exitDy=0;" edge="1" parent="1" source="l8vhdtD7TwplGJHoD4nW-22" target="l8vhdtD7TwplGJHoD4nW-20">
          <mxGeometry width="50" height="50" relative="1" as="geometry">
            <mxPoint x="490" y="650" as="sourcePoint" />
            <mxPoint x="540" y="600" as="targetPoint" />
          </mxGeometry>
        </mxCell>
        <mxCell id="l8vhdtD7TwplGJHoD4nW-1" value="Начало" style="ellipse;whiteSpace=wrap;html=1;" vertex="1" parent="1">
          <mxGeometry x="450" y="10" width="60" height="30" as="geometry" />
        </mxCell>
        <mxCell id="l8vhdtD7TwplGJHoD4nW-2" value="" style="endArrow=none;html=1;rounded=0;entryX=0.5;entryY=1;entryDx=0;entryDy=0;" edge="1" parent="1" source="l8vhdtD7TwplGJHoD4nW-17" target="l8vhdtD7TwplGJHoD4nW-1">
          <mxGeometry width="50" height="50" relative="1" as="geometry">
            <mxPoint x="480" y="520" as="sourcePoint" />
            <mxPoint x="480" y="300" as="targetPoint" />
          </mxGeometry>
        </mxCell>
        <mxCell id="l8vhdtD7TwplGJHoD4nW-3" value="" style="endArrow=none;dashed=1;html=1;rounded=0;" edge="1" parent="1">
          <mxGeometry width="50" height="50" relative="1" as="geometry">
            <mxPoint x="520" y="60" as="sourcePoint" />
            <mxPoint x="480" y="60" as="targetPoint" />
          </mxGeometry>
        </mxCell>
        <mxCell id="l8vhdtD7TwplGJHoD4nW-4" value="" style="endArrow=none;html=1;rounded=0;" edge="1" parent="1">
          <mxGeometry width="50" height="50" relative="1" as="geometry">
            <mxPoint x="520" y="80" as="sourcePoint" />
            <mxPoint x="520" y="40" as="targetPoint" />
          </mxGeometry>
        </mxCell>
        <mxCell id="l8vhdtD7TwplGJHoD4nW-7" value="#include&amp;lt;iostream&amp;gt;&lt;div&gt;#include&amp;lt;ctime&amp;gt;&lt;br&gt;&lt;/div&gt;&lt;div&gt;#include&amp;lt;clocale&amp;gt;&lt;br&gt;&lt;/div&gt;&lt;div&gt;using namespace std;&lt;br&gt;&lt;/div&gt;" style="text;html=1;align=center;verticalAlign=middle;whiteSpace=wrap;rounded=0;" vertex="1" parent="1">
          <mxGeometry x="520" y="20" width="130" height="90" as="geometry" />
        </mxCell>
        <mxCell id="l8vhdtD7TwplGJHoD4nW-8" value="int main()" style="shape=process;whiteSpace=wrap;html=1;backgroundOutline=1;" vertex="1" parent="1">
          <mxGeometry x="420" y="100" width="120" height="30" as="geometry" />
        </mxCell>
        <mxCell id="l8vhdtD7TwplGJHoD4nW-9" value="setlocale(LC_ALL, &quot;RU&quot;);" style="rounded=0;whiteSpace=wrap;html=1;" vertex="1" parent="1">
          <mxGeometry x="405" y="140" width="150" height="30" as="geometry" />
        </mxCell>
        <mxCell id="l8vhdtD7TwplGJHoD4nW-10" value="srand(time(0));" style="rounded=0;whiteSpace=wrap;html=1;" vertex="1" parent="1">
          <mxGeometry x="430" y="180" width="96" height="20" as="geometry" />
        </mxCell>
        <mxCell id="l8vhdtD7TwplGJHoD4nW-11" value="const int n = 3;" style="rounded=0;whiteSpace=wrap;html=1;" vertex="1" parent="1">
          <mxGeometry x="430" y="210" width="100" height="20" as="geometry" />
        </mxCell>
        <mxCell id="l8vhdtD7TwplGJHoD4nW-12" value="const int m = 7;" style="rounded=0;whiteSpace=wrap;html=1;" vertex="1" parent="1">
          <mxGeometry x="435" y="240" width="90" height="20" as="geometry" />
        </mxCell>
        <mxCell id="l8vhdtD7TwplGJHoD4nW-13" value="int mas[n][m], num;" style="rounded=0;whiteSpace=wrap;html=1;" vertex="1" parent="1">
          <mxGeometry x="420" y="270" width="120" height="30" as="geometry" />
        </mxCell>
        <mxCell id="l8vhdtD7TwplGJHoD4nW-15" value="int k = 0;" style="rounded=0;whiteSpace=wrap;html=1;" vertex="1" parent="1">
          <mxGeometry x="450" y="310" width="60" height="20" as="geometry" />
        </mxCell>
        <mxCell id="l8vhdtD7TwplGJHoD4nW-16" value="cout &lt;&lt; &quot;Введите номер строки - &quot;;" style="shape=parallelogram;perimeter=parallelogramPerimeter;whiteSpace=wrap;html=1;fixedSize=1;" vertex="1" parent="1">
          <mxGeometry x="400" y="340" width="160" height="30" as="geometry" />
        </mxCell>
        <mxCell id="l8vhdtD7TwplGJHoD4nW-18" value="" style="endArrow=none;html=1;rounded=0;entryX=0.5;entryY=1;entryDx=0;entryDy=0;" edge="1" parent="1" target="l8vhdtD7TwplGJHoD4nW-17">
          <mxGeometry width="50" height="50" relative="1" as="geometry">
            <mxPoint x="480" y="520" as="sourcePoint" />
            <mxPoint x="480" y="40" as="targetPoint" />
          </mxGeometry>
        </mxCell>
        <mxCell id="l8vhdtD7TwplGJHoD4nW-17" value="cin &gt;&gt; num;" style="shape=parallelogram;perimeter=parallelogramPerimeter;whiteSpace=wrap;html=1;fixedSize=1;" vertex="1" parent="1">
          <mxGeometry x="433" y="380" width="90" height="20" as="geometry" />
        </mxCell>
        <mxCell id="l8vhdtD7TwplGJHoD4nW-20" value="for (int i = 0; i &lt; n; i++)" style="shape=hexagon;perimeter=hexagonPerimeter2;whiteSpace=wrap;html=1;fixedSize=1;" vertex="1" parent="1">
          <mxGeometry x="403" y="420" width="150" height="30" as="geometry" />
        </mxCell>
        <mxCell id="l8vhdtD7TwplGJHoD4nW-21" value="for (int j = 0; j &lt; m; j++)" style="shape=hexagon;perimeter=hexagonPerimeter2;whiteSpace=wrap;html=1;fixedSize=1;" vertex="1" parent="1">
          <mxGeometry x="398" y="470" width="160" height="30" as="geometry" />
        </mxCell>
        <mxCell id="l8vhdtD7TwplGJHoD4nW-22" value="mas[i][j] = rand() % 100 - 10;" style="rounded=0;whiteSpace=wrap;html=1;" vertex="1" parent="1">
          <mxGeometry x="395" y="510" width="170" height="30" as="geometry" />
        </mxCell>
        <mxCell id="l8vhdtD7TwplGJHoD4nW-24" value="" style="endArrow=none;html=1;rounded=0;entryX=0.5;entryY=1;entryDx=0;entryDy=0;exitX=0;exitY=0.5;exitDx=0;exitDy=0;" edge="1" parent="1" source="l8vhdtD7TwplGJHoD4nW-21" target="l8vhdtD7TwplGJHoD4nW-22">
          <mxGeometry width="50" height="50" relative="1" as="geometry">
            <mxPoint x="490" y="650" as="sourcePoint" />
            <mxPoint x="540" y="600" as="targetPoint" />
            <Array as="points">
              <mxPoint x="360" y="485" />
              <mxPoint x="360" y="560" />
              <mxPoint x="480" y="560" />
            </Array>
          </mxGeometry>
        </mxCell>
        <mxCell id="l8vhdtD7TwplGJHoD4nW-25" value="" style="endArrow=none;html=1;rounded=0;entryX=1;entryY=0.5;entryDx=0;entryDy=0;exitX=0;exitY=0.5;exitDx=0;exitDy=0;" edge="1" parent="1" source="l8vhdtD7TwplGJHoD4nW-20" target="l8vhdtD7TwplGJHoD4nW-21">
          <mxGeometry width="50" height="50" relative="1" as="geometry">
            <mxPoint x="490" y="650" as="sourcePoint" />
            <mxPoint x="540" y="600" as="targetPoint" />
            <Array as="points">
              <mxPoint x="330" y="435" />
              <mxPoint x="330" y="570" />
              <mxPoint x="590" y="570" />
              <mxPoint x="590" y="485" />
            </Array>
          </mxGeometry>
        </mxCell>
        <mxCell id="l8vhdtD7TwplGJHoD4nW-26" value="" style="endArrow=none;html=1;rounded=0;entryX=1;entryY=0.5;entryDx=0;entryDy=0;" edge="1" parent="1" target="l8vhdtD7TwplGJHoD4nW-20">
          <mxGeometry width="50" height="50" relative="1" as="geometry">
            <mxPoint x="480" y="670" as="sourcePoint" />
            <mxPoint x="540" y="600" as="targetPoint" />
            <Array as="points">
              <mxPoint x="480" y="590" />
              <mxPoint x="610" y="590" />
              <mxPoint x="610" y="435" />
            </Array>
          </mxGeometry>
        </mxCell>
        <mxCell id="l8vhdtD7TwplGJHoD4nW-34" value="" style="endArrow=none;html=1;rounded=0;entryX=0.5;entryY=1;entryDx=0;entryDy=0;exitX=0.5;exitY=0;exitDx=0;exitDy=0;" edge="1" parent="1" target="l8vhdtD7TwplGJHoD4nW-35">
          <mxGeometry width="50" height="50" relative="1" as="geometry">
            <mxPoint x="480" y="710" as="sourcePoint" />
            <mxPoint x="540" y="790" as="targetPoint" />
          </mxGeometry>
        </mxCell>
        <mxCell id="l8vhdtD7TwplGJHoD4nW-35" value="for (int i = 0; i &lt; n; i++)" style="shape=hexagon;perimeter=hexagonPerimeter2;whiteSpace=wrap;html=1;fixedSize=1;" vertex="1" parent="1">
          <mxGeometry x="403" y="600" width="150" height="30" as="geometry" />
        </mxCell>
        <mxCell id="l8vhdtD7TwplGJHoD4nW-36" value="for (int j = 0; j &lt; m; j++)" style="shape=hexagon;perimeter=hexagonPerimeter2;whiteSpace=wrap;html=1;fixedSize=1;" vertex="1" parent="1">
          <mxGeometry x="400" y="670" width="160" height="30" as="geometry" />
        </mxCell>
        <mxCell id="l8vhdtD7TwplGJHoD4nW-38" value="" style="endArrow=none;html=1;rounded=0;entryX=0.5;entryY=1;entryDx=0;entryDy=0;exitX=0;exitY=0.5;exitDx=0;exitDy=0;" edge="1" parent="1" source="l8vhdtD7TwplGJHoD4nW-36">
          <mxGeometry width="50" height="50" relative="1" as="geometry">
            <mxPoint x="490" y="840" as="sourcePoint" />
            <mxPoint x="480" y="740" as="targetPoint" />
            <Array as="points">
              <mxPoint x="360" y="685" />
              <mxPoint x="360" y="750" />
              <mxPoint x="480" y="750" />
            </Array>
          </mxGeometry>
        </mxCell>
        <mxCell id="l8vhdtD7TwplGJHoD4nW-39" value="" style="endArrow=none;html=1;rounded=0;entryX=1;entryY=0.5;entryDx=0;entryDy=0;exitX=0;exitY=0.5;exitDx=0;exitDy=0;" edge="1" parent="1" source="l8vhdtD7TwplGJHoD4nW-35" target="l8vhdtD7TwplGJHoD4nW-36">
          <mxGeometry width="50" height="50" relative="1" as="geometry">
            <mxPoint x="490" y="840" as="sourcePoint" />
            <mxPoint x="540" y="790" as="targetPoint" />
            <Array as="points">
              <mxPoint x="330" y="615" />
              <mxPoint x="330" y="770" />
              <mxPoint x="590" y="770" />
              <mxPoint x="590" y="685" />
            </Array>
          </mxGeometry>
        </mxCell>
        <mxCell id="l8vhdtD7TwplGJHoD4nW-40" value="" style="endArrow=none;html=1;rounded=0;entryX=1;entryY=0.5;entryDx=0;entryDy=0;" edge="1" parent="1" target="l8vhdtD7TwplGJHoD4nW-35">
          <mxGeometry width="50" height="50" relative="1" as="geometry">
            <mxPoint x="480" y="860" as="sourcePoint" />
            <mxPoint x="540" y="790" as="targetPoint" />
            <Array as="points">
              <mxPoint x="480" y="780" />
              <mxPoint x="610" y="780" />
              <mxPoint x="610" y="615" />
            </Array>
          </mxGeometry>
        </mxCell>
        <mxCell id="l8vhdtD7TwplGJHoD4nW-41" value="cout &lt;&lt; endl;" style="shape=parallelogram;perimeter=parallelogramPerimeter;whiteSpace=wrap;html=1;fixedSize=1;" vertex="1" parent="1">
          <mxGeometry x="420" y="640" width="120" height="20" as="geometry" />
        </mxCell>
        <mxCell id="l8vhdtD7TwplGJHoD4nW-43" value="cout&amp;lt;&amp;lt;mas[i][j]&amp;lt;&amp;lt;&#39; &#39;;" style="shape=parallelogram;perimeter=parallelogramPerimeter;whiteSpace=wrap;html=1;fixedSize=1;" vertex="1" parent="1">
          <mxGeometry x="405" y="710" width="150" height="30" as="geometry" />
        </mxCell>
        <mxCell id="l8vhdtD7TwplGJHoD4nW-44" value="cout &lt;&lt; endl;" style="shape=parallelogram;perimeter=parallelogramPerimeter;whiteSpace=wrap;html=1;fixedSize=1;" vertex="1" parent="1">
          <mxGeometry x="420" y="790" width="120" height="20" as="geometry" />
        </mxCell>
        <mxCell id="l8vhdtD7TwplGJHoD4nW-45" value="for (int j = 0; j &lt; m; j++)" style="shape=hexagon;perimeter=hexagonPerimeter2;whiteSpace=wrap;html=1;fixedSize=1;" vertex="1" parent="1">
          <mxGeometry x="402.5" y="830" width="155" height="50" as="geometry" />
        </mxCell>
        <mxCell id="l8vhdtD7TwplGJHoD4nW-46" value="if (mas[num - 1][j] &lt; 0)" style="rhombus;whiteSpace=wrap;html=1;" vertex="1" parent="1">
          <mxGeometry x="411.5" y="900" width="137" height="60" as="geometry" />
        </mxCell>
        <mxCell id="l8vhdtD7TwplGJHoD4nW-47" value="" style="endArrow=none;html=1;rounded=0;entryX=0.5;entryY=1;entryDx=0;entryDy=0;exitX=0.5;exitY=0;exitDx=0;exitDy=0;" edge="1" parent="1" source="l8vhdtD7TwplGJHoD4nW-46" target="l8vhdtD7TwplGJHoD4nW-45">
          <mxGeometry width="50" height="50" relative="1" as="geometry">
            <mxPoint x="430" y="800" as="sourcePoint" />
            <mxPoint x="480" y="750" as="targetPoint" />
          </mxGeometry>
        </mxCell>
        <mxCell id="l8vhdtD7TwplGJHoD4nW-48" value="" style="endArrow=none;html=1;rounded=0;entryX=0;entryY=0.5;entryDx=0;entryDy=0;" edge="1" parent="1" target="l8vhdtD7TwplGJHoD4nW-46">
          <mxGeometry width="50" height="50" relative="1" as="geometry">
            <mxPoint x="380" y="970" as="sourcePoint" />
            <mxPoint x="480" y="750" as="targetPoint" />
            <Array as="points">
              <mxPoint x="380" y="930" />
            </Array>
          </mxGeometry>
        </mxCell>
        <mxCell id="l8vhdtD7TwplGJHoD4nW-49" value="k += 1;" style="rounded=0;whiteSpace=wrap;html=1;" vertex="1" parent="1">
          <mxGeometry x="344" y="970" width="70" height="20" as="geometry" />
        </mxCell>
        <mxCell id="l8vhdtD7TwplGJHoD4nW-53" value="" style="endArrow=none;html=1;rounded=0;entryX=1;entryY=0.5;entryDx=0;entryDy=0;exitX=0.5;exitY=1;exitDx=0;exitDy=0;" edge="1" parent="1" source="l8vhdtD7TwplGJHoD4nW-49" target="l8vhdtD7TwplGJHoD4nW-46">
          <mxGeometry width="50" height="50" relative="1" as="geometry">
            <mxPoint x="490" y="1020" as="sourcePoint" />
            <mxPoint x="480" y="750" as="targetPoint" />
            <Array as="points">
              <mxPoint x="379" y="1010" />
              <mxPoint x="570" y="1010" />
              <mxPoint x="570" y="930" />
            </Array>
          </mxGeometry>
        </mxCell>
        <mxCell id="l8vhdtD7TwplGJHoD4nW-54" value="" style="endArrow=none;html=1;rounded=0;exitX=0;exitY=0.5;exitDx=0;exitDy=0;" edge="1" parent="1" source="l8vhdtD7TwplGJHoD4nW-45">
          <mxGeometry width="50" height="50" relative="1" as="geometry">
            <mxPoint x="480" y="1030" as="sourcePoint" />
            <mxPoint x="480" y="1010" as="targetPoint" />
            <Array as="points">
              <mxPoint x="330" y="855" />
              <mxPoint x="330" y="1040" />
              <mxPoint x="480" y="1040" />
            </Array>
          </mxGeometry>
        </mxCell>
        <mxCell id="l8vhdtD7TwplGJHoD4nW-55" value="" style="endArrow=none;html=1;rounded=0;entryX=1;entryY=0.5;entryDx=0;entryDy=0;" edge="1" parent="1" target="l8vhdtD7TwplGJHoD4nW-45">
          <mxGeometry width="50" height="50" relative="1" as="geometry">
            <mxPoint x="480" y="1080" as="sourcePoint" />
            <mxPoint x="480" y="850" as="targetPoint" />
            <Array as="points">
              <mxPoint x="480" y="1060" />
              <mxPoint x="600" y="1060" />
              <mxPoint x="600" y="855" />
            </Array>
          </mxGeometry>
        </mxCell>
        <mxCell id="l8vhdtD7TwplGJHoD4nW-56" value="if (k &gt; 0)" style="rhombus;whiteSpace=wrap;html=1;" vertex="1" parent="1">
          <mxGeometry x="445" y="1080" width="70" height="40" as="geometry" />
        </mxCell>
        <mxCell id="l8vhdtD7TwplGJHoD4nW-57" value="cout &lt;&lt; &quot;В указанной строке есть отрицательные элементы&quot;;" style="shape=parallelogram;perimeter=parallelogramPerimeter;whiteSpace=wrap;html=1;fixedSize=1;" vertex="1" parent="1">
          <mxGeometry x="210" y="1140" width="240" height="40" as="geometry" />
        </mxCell>
        <mxCell id="l8vhdtD7TwplGJHoD4nW-58" value="cout &lt;&lt; &quot;В указанной строке нет отрицательных элементов&quot;;" style="shape=parallelogram;perimeter=parallelogramPerimeter;whiteSpace=wrap;html=1;fixedSize=1;" vertex="1" parent="1">
          <mxGeometry x="510" y="1140" width="290" height="40" as="geometry" />
        </mxCell>
        <mxCell id="l8vhdtD7TwplGJHoD4nW-59" value="" style="endArrow=none;html=1;rounded=0;entryX=0;entryY=0.5;entryDx=0;entryDy=0;exitX=0.5;exitY=0;exitDx=0;exitDy=0;" edge="1" parent="1" source="l8vhdtD7TwplGJHoD4nW-57" target="l8vhdtD7TwplGJHoD4nW-56">
          <mxGeometry width="50" height="50" relative="1" as="geometry">
            <mxPoint x="500" y="1190" as="sourcePoint" />
            <mxPoint x="550" y="1140" as="targetPoint" />
            <Array as="points">
              <mxPoint x="330" y="1100" />
            </Array>
          </mxGeometry>
        </mxCell>
        <mxCell id="l8vhdtD7TwplGJHoD4nW-60" value="" style="endArrow=none;html=1;rounded=0;entryX=1;entryY=0.5;entryDx=0;entryDy=0;exitX=0.5;exitY=0;exitDx=0;exitDy=0;" edge="1" parent="1" source="l8vhdtD7TwplGJHoD4nW-58" target="l8vhdtD7TwplGJHoD4nW-56">
          <mxGeometry width="50" height="50" relative="1" as="geometry">
            <mxPoint x="500" y="1190" as="sourcePoint" />
            <mxPoint x="550" y="1140" as="targetPoint" />
            <Array as="points">
              <mxPoint x="655" y="1100" />
            </Array>
          </mxGeometry>
        </mxCell>
        <mxCell id="l8vhdtD7TwplGJHoD4nW-61" value="" style="endArrow=none;html=1;rounded=0;entryX=0.5;entryY=1;entryDx=0;entryDy=0;exitX=0.5;exitY=1;exitDx=0;exitDy=0;" edge="1" parent="1" source="l8vhdtD7TwplGJHoD4nW-58" target="l8vhdtD7TwplGJHoD4nW-57">
          <mxGeometry width="50" height="50" relative="1" as="geometry">
            <mxPoint x="500" y="1190" as="sourcePoint" />
            <mxPoint x="550" y="1140" as="targetPoint" />
            <Array as="points">
              <mxPoint x="655" y="1210" />
              <mxPoint x="330" y="1210" />
            </Array>
          </mxGeometry>
        </mxCell>
        <mxCell id="l8vhdtD7TwplGJHoD4nW-62" value="" style="endArrow=none;html=1;rounded=0;" edge="1" parent="1">
          <mxGeometry width="50" height="50" relative="1" as="geometry">
            <mxPoint x="480" y="1240" as="sourcePoint" />
            <mxPoint x="480" y="1210" as="targetPoint" />
          </mxGeometry>
        </mxCell>
        <mxCell id="l8vhdtD7TwplGJHoD4nW-63" value="for (int i = 0; i &lt; n; i++)" style="shape=hexagon;perimeter=hexagonPerimeter2;whiteSpace=wrap;html=1;fixedSize=1;" vertex="1" parent="1">
          <mxGeometry x="420" y="1240" width="130" height="40" as="geometry" />
        </mxCell>
        <mxCell id="l8vhdtD7TwplGJHoD4nW-71" style="edgeStyle=orthogonalEdgeStyle;rounded=0;orthogonalLoop=1;jettySize=auto;html=1;exitX=0.5;exitY=1;exitDx=0;exitDy=0;entryX=0.5;entryY=0;entryDx=0;entryDy=0;" edge="1" parent="1" source="l8vhdtD7TwplGJHoD4nW-64" target="l8vhdtD7TwplGJHoD4nW-70">
          <mxGeometry relative="1" as="geometry" />
        </mxCell>
        <mxCell id="l8vhdtD7TwplGJHoD4nW-64" value="k = 0;" style="rounded=0;whiteSpace=wrap;html=1;" vertex="1" parent="1">
          <mxGeometry x="450" y="1300" width="60" height="20" as="geometry" />
        </mxCell>
        <mxCell id="l8vhdtD7TwplGJHoD4nW-65" value="" style="endArrow=none;html=1;rounded=0;entryX=0.462;entryY=1;entryDx=0;entryDy=0;exitX=0.5;exitY=0;exitDx=0;exitDy=0;entryPerimeter=0;" edge="1" parent="1" source="l8vhdtD7TwplGJHoD4nW-64" target="l8vhdtD7TwplGJHoD4nW-63">
          <mxGeometry width="50" height="50" relative="1" as="geometry">
            <mxPoint x="500" y="1190" as="sourcePoint" />
            <mxPoint x="550" y="1140" as="targetPoint" />
          </mxGeometry>
        </mxCell>
        <mxCell id="l8vhdtD7TwplGJHoD4nW-73" style="edgeStyle=orthogonalEdgeStyle;rounded=0;orthogonalLoop=1;jettySize=auto;html=1;exitX=0.5;exitY=1;exitDx=0;exitDy=0;entryX=0.5;entryY=0;entryDx=0;entryDy=0;" edge="1" parent="1" source="l8vhdtD7TwplGJHoD4nW-70">
          <mxGeometry relative="1" as="geometry">
            <mxPoint x="480" y="1400" as="targetPoint" />
          </mxGeometry>
        </mxCell>
        <mxCell id="l8vhdtD7TwplGJHoD4nW-70" value="for (int j = 0; j &lt; m; j++)" style="shape=hexagon;perimeter=hexagonPerimeter2;whiteSpace=wrap;html=1;fixedSize=1;" vertex="1" parent="1">
          <mxGeometry x="415" y="1340" width="130" height="40" as="geometry" />
        </mxCell>
        <mxCell id="l8vhdtD7TwplGJHoD4nW-74" value="if (mas[i][j] &lt; 0)" style="rhombus;whiteSpace=wrap;html=1;" vertex="1" parent="1">
          <mxGeometry x="430" y="1400" width="100" height="50" as="geometry" />
        </mxCell>
        <mxCell id="l8vhdtD7TwplGJHoD4nW-75" value="k += 1;" style="rounded=0;whiteSpace=wrap;html=1;" vertex="1" parent="1">
          <mxGeometry x="360" y="1450" width="60" height="20" as="geometry" />
        </mxCell>
        <mxCell id="l8vhdtD7TwplGJHoD4nW-76" value="" style="endArrow=none;html=1;rounded=0;entryX=0;entryY=0.5;entryDx=0;entryDy=0;exitX=0.5;exitY=0;exitDx=0;exitDy=0;" edge="1" parent="1" source="l8vhdtD7TwplGJHoD4nW-75" target="l8vhdtD7TwplGJHoD4nW-74">
          <mxGeometry width="50" height="50" relative="1" as="geometry">
            <mxPoint x="500" y="1490" as="sourcePoint" />
            <mxPoint x="550" y="1440" as="targetPoint" />
            <Array as="points">
              <mxPoint x="390" y="1425" />
            </Array>
          </mxGeometry>
        </mxCell>
        <mxCell id="l8vhdtD7TwplGJHoD4nW-81" style="edgeStyle=orthogonalEdgeStyle;rounded=0;orthogonalLoop=1;jettySize=auto;html=1;exitX=0;exitY=0.5;exitDx=0;exitDy=0;entryX=0.5;entryY=0;entryDx=0;entryDy=0;" edge="1" parent="1" source="l8vhdtD7TwplGJHoD4nW-79" target="l8vhdtD7TwplGJHoD4nW-80">
          <mxGeometry relative="1" as="geometry" />
        </mxCell>
        <mxCell id="l8vhdtD7TwplGJHoD4nW-79" value="if (k &gt; 0)" style="rhombus;whiteSpace=wrap;html=1;" vertex="1" parent="1">
          <mxGeometry x="442.5" y="1540" width="75" height="50" as="geometry" />
        </mxCell>
        <mxCell id="l8vhdtD7TwplGJHoD4nW-83" style="edgeStyle=orthogonalEdgeStyle;rounded=0;orthogonalLoop=1;jettySize=auto;html=1;exitX=0.5;exitY=1;exitDx=0;exitDy=0;entryX=0.5;entryY=0;entryDx=0;entryDy=0;" edge="1" parent="1" source="l8vhdtD7TwplGJHoD4nW-80" target="l8vhdtD7TwplGJHoD4nW-82">
          <mxGeometry relative="1" as="geometry" />
        </mxCell>
        <mxCell id="l8vhdtD7TwplGJHoD4nW-80" value="for (int j = 0; j &lt; m; j++)" style="shape=hexagon;perimeter=hexagonPerimeter2;whiteSpace=wrap;html=1;fixedSize=1;" vertex="1" parent="1">
          <mxGeometry x="319" y="1600" width="120" height="40" as="geometry" />
        </mxCell>
        <mxCell id="l8vhdtD7TwplGJHoD4nW-84" style="edgeStyle=orthogonalEdgeStyle;rounded=0;orthogonalLoop=1;jettySize=auto;html=1;exitX=0.5;exitY=1;exitDx=0;exitDy=0;entryX=0;entryY=0.5;entryDx=0;entryDy=0;" edge="1" parent="1" source="l8vhdtD7TwplGJHoD4nW-82" target="l8vhdtD7TwplGJHoD4nW-80">
          <mxGeometry relative="1" as="geometry" />
        </mxCell>
        <mxCell id="l8vhdtD7TwplGJHoD4nW-82" value="mas[i][j] = 0;" style="rounded=0;whiteSpace=wrap;html=1;" vertex="1" parent="1">
          <mxGeometry x="334" y="1660" width="90" height="30" as="geometry" />
        </mxCell>
        <mxCell id="l8vhdtD7TwplGJHoD4nW-87" value="" style="endArrow=classic;html=1;rounded=0;" edge="1" parent="1">
          <mxGeometry width="50" height="50" relative="1" as="geometry">
            <mxPoint x="440" y="1620" as="sourcePoint" />
            <mxPoint x="480" y="1770" as="targetPoint" />
            <Array as="points">
              <mxPoint x="455" y="1620" />
              <mxPoint x="455" y="1720" />
              <mxPoint x="380" y="1720" />
              <mxPoint x="380" y="1750" />
              <mxPoint x="480" y="1750" />
            </Array>
          </mxGeometry>
        </mxCell>
        <mxCell id="l8vhdtD7TwplGJHoD4nW-88" value="" style="endArrow=classic;html=1;rounded=0;exitX=1;exitY=0.5;exitDx=0;exitDy=0;entryX=0;entryY=0.5;entryDx=0;entryDy=0;" edge="1" parent="1" source="l8vhdtD7TwplGJHoD4nW-79" target="l8vhdtD7TwplGJHoD4nW-63">
          <mxGeometry width="50" height="50" relative="1" as="geometry">
            <mxPoint x="450" y="1580" as="sourcePoint" />
            <mxPoint x="430" y="1790" as="targetPoint" />
            <Array as="points">
              <mxPoint x="540" y="1565" />
              <mxPoint x="540" y="1750" />
              <mxPoint x="480" y="1750" />
              <mxPoint x="480" y="1790" />
              <mxPoint x="280" y="1790" />
              <mxPoint x="280" y="1360" />
              <mxPoint x="280" y="1260" />
            </Array>
          </mxGeometry>
        </mxCell>
        <mxCell id="l8vhdtD7TwplGJHoD4nW-100" style="edgeStyle=orthogonalEdgeStyle;rounded=0;orthogonalLoop=1;jettySize=auto;html=1;exitX=0.5;exitY=1;exitDx=0;exitDy=0;entryX=0.5;entryY=0;entryDx=0;entryDy=0;" edge="1" parent="1" source="l8vhdtD7TwplGJHoD4nW-91" target="l8vhdtD7TwplGJHoD4nW-93">
          <mxGeometry relative="1" as="geometry" />
        </mxCell>
        <mxCell id="l8vhdtD7TwplGJHoD4nW-91" value="cout &lt;&lt; endl;" style="shape=parallelogram;perimeter=parallelogramPerimeter;whiteSpace=wrap;html=1;fixedSize=1;" vertex="1" parent="1">
          <mxGeometry x="426" y="1860" width="100" height="30" as="geometry" />
        </mxCell>
        <mxCell id="l8vhdtD7TwplGJHoD4nW-92" value="" style="endArrow=none;html=1;rounded=0;entryX=0.5;entryY=1;entryDx=0;entryDy=0;exitX=0.5;exitY=0;exitDx=0;exitDy=0;" edge="1" parent="1" target="l8vhdtD7TwplGJHoD4nW-93">
          <mxGeometry width="50" height="50" relative="1" as="geometry">
            <mxPoint x="484" y="2020" as="sourcePoint" />
            <mxPoint x="544" y="2100" as="targetPoint" />
          </mxGeometry>
        </mxCell>
        <mxCell id="l8vhdtD7TwplGJHoD4nW-102" style="edgeStyle=orthogonalEdgeStyle;rounded=0;orthogonalLoop=1;jettySize=auto;html=1;exitX=1;exitY=0.5;exitDx=0;exitDy=0;entryX=0.5;entryY=0;entryDx=0;entryDy=0;" edge="1" parent="1" source="l8vhdtD7TwplGJHoD4nW-93" target="l8vhdtD7TwplGJHoD4nW-99">
          <mxGeometry relative="1" as="geometry">
            <mxPoint x="530" y="2090" as="targetPoint" />
            <Array as="points">
              <mxPoint x="610" y="1925" />
              <mxPoint x="610" y="2100" />
              <mxPoint x="490" y="2100" />
            </Array>
          </mxGeometry>
        </mxCell>
        <mxCell id="l8vhdtD7TwplGJHoD4nW-93" value="for (int i = 0; i &lt; n; i++)" style="shape=hexagon;perimeter=hexagonPerimeter2;whiteSpace=wrap;html=1;fixedSize=1;" vertex="1" parent="1">
          <mxGeometry x="407" y="1910" width="150" height="30" as="geometry" />
        </mxCell>
        <mxCell id="l8vhdtD7TwplGJHoD4nW-94" value="for (int j = 0; j &lt; m; j++)" style="shape=hexagon;perimeter=hexagonPerimeter2;whiteSpace=wrap;html=1;fixedSize=1;" vertex="1" parent="1">
          <mxGeometry x="404" y="1980" width="160" height="30" as="geometry" />
        </mxCell>
        <mxCell id="l8vhdtD7TwplGJHoD4nW-95" value="" style="endArrow=none;html=1;rounded=0;entryX=0.5;entryY=1;entryDx=0;entryDy=0;exitX=0;exitY=0.5;exitDx=0;exitDy=0;" edge="1" parent="1" source="l8vhdtD7TwplGJHoD4nW-94">
          <mxGeometry width="50" height="50" relative="1" as="geometry">
            <mxPoint x="494" y="2150" as="sourcePoint" />
            <mxPoint x="484" y="2050" as="targetPoint" />
            <Array as="points">
              <mxPoint x="364" y="1995" />
              <mxPoint x="364" y="2060" />
              <mxPoint x="484" y="2060" />
            </Array>
          </mxGeometry>
        </mxCell>
        <mxCell id="l8vhdtD7TwplGJHoD4nW-96" value="" style="endArrow=none;html=1;rounded=0;entryX=1;entryY=0.5;entryDx=0;entryDy=0;exitX=0;exitY=0.5;exitDx=0;exitDy=0;" edge="1" parent="1" source="l8vhdtD7TwplGJHoD4nW-93" target="l8vhdtD7TwplGJHoD4nW-94">
          <mxGeometry width="50" height="50" relative="1" as="geometry">
            <mxPoint x="494" y="2150" as="sourcePoint" />
            <mxPoint x="544" y="2100" as="targetPoint" />
            <Array as="points">
              <mxPoint x="334" y="1925" />
              <mxPoint x="334" y="2080" />
              <mxPoint x="594" y="2080" />
              <mxPoint x="594" y="1995" />
            </Array>
          </mxGeometry>
        </mxCell>
        <mxCell id="l8vhdtD7TwplGJHoD4nW-97" value="cout &lt;&lt; endl;" style="shape=parallelogram;perimeter=parallelogramPerimeter;whiteSpace=wrap;html=1;fixedSize=1;" vertex="1" parent="1">
          <mxGeometry x="424" y="1950" width="120" height="20" as="geometry" />
        </mxCell>
        <mxCell id="l8vhdtD7TwplGJHoD4nW-98" value="cout&amp;lt;&amp;lt;mas[i][j]&amp;lt;&amp;lt;&#39; &#39;;" style="shape=parallelogram;perimeter=parallelogramPerimeter;whiteSpace=wrap;html=1;fixedSize=1;" vertex="1" parent="1">
          <mxGeometry x="409" y="2020" width="150" height="30" as="geometry" />
        </mxCell>
        <mxCell id="l8vhdtD7TwplGJHoD4nW-105" style="edgeStyle=orthogonalEdgeStyle;rounded=0;orthogonalLoop=1;jettySize=auto;html=1;exitX=0.5;exitY=1;exitDx=0;exitDy=0;entryX=0.5;entryY=0;entryDx=0;entryDy=0;" edge="1" parent="1" source="l8vhdtD7TwplGJHoD4nW-99" target="l8vhdtD7TwplGJHoD4nW-104">
          <mxGeometry relative="1" as="geometry" />
        </mxCell>
        <mxCell id="l8vhdtD7TwplGJHoD4nW-99" value="cout &lt;&lt; endl;" style="shape=parallelogram;perimeter=parallelogramPerimeter;whiteSpace=wrap;html=1;fixedSize=1;" vertex="1" parent="1">
          <mxGeometry x="430" y="2130" width="120" height="20" as="geometry" />
        </mxCell>
        <mxCell id="l8vhdtD7TwplGJHoD4nW-101" value="" style="endArrow=classic;html=1;rounded=0;entryX=0;entryY=0.5;entryDx=0;entryDy=0;" edge="1" parent="1" target="l8vhdtD7TwplGJHoD4nW-93">
          <mxGeometry width="50" height="50" relative="1" as="geometry">
            <mxPoint x="340" y="1925" as="sourcePoint" />
            <mxPoint x="384" y="1880" as="targetPoint" />
          </mxGeometry>
        </mxCell>
        <mxCell id="l8vhdtD7TwplGJHoD4nW-103" value="" style="endArrow=classic;html=1;rounded=0;entryX=0;entryY=0.5;entryDx=0;entryDy=0;" edge="1" parent="1" target="l8vhdtD7TwplGJHoD4nW-94">
          <mxGeometry width="50" height="50" relative="1" as="geometry">
            <mxPoint x="370" y="1995" as="sourcePoint" />
            <mxPoint x="460" y="1990" as="targetPoint" />
          </mxGeometry>
        </mxCell>
        <mxCell id="l8vhdtD7TwplGJHoD4nW-107" style="edgeStyle=orthogonalEdgeStyle;rounded=0;orthogonalLoop=1;jettySize=auto;html=1;exitX=0.5;exitY=1;exitDx=0;exitDy=0;entryX=0.5;entryY=0;entryDx=0;entryDy=0;" edge="1" parent="1" source="l8vhdtD7TwplGJHoD4nW-104" target="l8vhdtD7TwplGJHoD4nW-106">
          <mxGeometry relative="1" as="geometry" />
        </mxCell>
        <mxCell id="l8vhdtD7TwplGJHoD4nW-104" value="for (int i = 0; i &lt; n-1; i++)" style="shape=hexagon;perimeter=hexagonPerimeter2;whiteSpace=wrap;html=1;fixedSize=1;" vertex="1" parent="1">
          <mxGeometry x="428.5" y="2180" width="120" height="40" as="geometry" />
        </mxCell>
        <mxCell id="l8vhdtD7TwplGJHoD4nW-109" style="edgeStyle=orthogonalEdgeStyle;rounded=0;orthogonalLoop=1;jettySize=auto;html=1;exitX=0.5;exitY=1;exitDx=0;exitDy=0;entryX=0.5;entryY=0;entryDx=0;entryDy=0;" edge="1" parent="1" source="l8vhdtD7TwplGJHoD4nW-106" target="l8vhdtD7TwplGJHoD4nW-108">
          <mxGeometry relative="1" as="geometry" />
        </mxCell>
        <mxCell id="l8vhdtD7TwplGJHoD4nW-106" value="for (int j = 0; j &lt; m; j++)" style="shape=hexagon;perimeter=hexagonPerimeter2;whiteSpace=wrap;html=1;fixedSize=1;" vertex="1" parent="1">
          <mxGeometry x="429.25" y="2240" width="121.5" height="50" as="geometry" />
        </mxCell>
        <mxCell id="l8vhdtD7TwplGJHoD4nW-111" style="edgeStyle=orthogonalEdgeStyle;rounded=0;orthogonalLoop=1;jettySize=auto;html=1;exitX=0;exitY=0.5;exitDx=0;exitDy=0;entryX=0.5;entryY=0;entryDx=0;entryDy=0;" edge="1" parent="1" source="l8vhdtD7TwplGJHoD4nW-108" target="l8vhdtD7TwplGJHoD4nW-110">
          <mxGeometry relative="1" as="geometry" />
        </mxCell>
        <mxCell id="l8vhdtD7TwplGJHoD4nW-108" value="if ((mas[i][j] &lt; mas[i + 1][j]) and (mas[i][j] == 0))" style="rhombus;whiteSpace=wrap;html=1;" vertex="1" parent="1">
          <mxGeometry x="375" y="2320" width="230" height="80" as="geometry" />
        </mxCell>
        <mxCell id="l8vhdtD7TwplGJHoD4nW-113" style="edgeStyle=orthogonalEdgeStyle;rounded=0;orthogonalLoop=1;jettySize=auto;html=1;exitX=0.5;exitY=1;exitDx=0;exitDy=0;entryX=0.5;entryY=0;entryDx=0;entryDy=0;" edge="1" parent="1" source="l8vhdtD7TwplGJHoD4nW-110" target="l8vhdtD7TwplGJHoD4nW-112">
          <mxGeometry relative="1" as="geometry" />
        </mxCell>
        <mxCell id="l8vhdtD7TwplGJHoD4nW-110" value="mas[i][j] = mas[i + 1][j];" style="rounded=0;whiteSpace=wrap;html=1;" vertex="1" parent="1">
          <mxGeometry x="267" y="2400" width="126" height="30" as="geometry" />
        </mxCell>
        <mxCell id="l8vhdtD7TwplGJHoD4nW-112" value="mas[i + 1][j] = 0;" style="rounded=0;whiteSpace=wrap;html=1;" vertex="1" parent="1">
          <mxGeometry x="275" y="2450" width="110" height="30" as="geometry" />
        </mxCell>
        <mxCell id="l8vhdtD7TwplGJHoD4nW-114" value="" style="endArrow=none;html=1;rounded=0;entryX=1;entryY=0.5;entryDx=0;entryDy=0;exitX=0.5;exitY=1;exitDx=0;exitDy=0;" edge="1" parent="1" source="l8vhdtD7TwplGJHoD4nW-112" target="l8vhdtD7TwplGJHoD4nW-108">
          <mxGeometry width="50" height="50" relative="1" as="geometry">
            <mxPoint x="510" y="2520" as="sourcePoint" />
            <mxPoint x="560" y="2470" as="targetPoint" />
            <Array as="points">
              <mxPoint x="330" y="2500" />
              <mxPoint x="630" y="2500" />
              <mxPoint x="630" y="2440" />
              <mxPoint x="630" y="2360" />
            </Array>
          </mxGeometry>
        </mxCell>
        <mxCell id="l8vhdtD7TwplGJHoD4nW-115" value="" style="endArrow=classic;html=1;rounded=0;entryX=0;entryY=0.5;entryDx=0;entryDy=0;" edge="1" parent="1" target="l8vhdtD7TwplGJHoD4nW-106">
          <mxGeometry width="50" height="50" relative="1" as="geometry">
            <mxPoint x="500" y="2500" as="sourcePoint" />
            <mxPoint x="500" y="2520" as="targetPoint" />
            <Array as="points">
              <mxPoint x="500" y="2530" />
              <mxPoint x="260" y="2530" />
              <mxPoint x="260" y="2265" />
            </Array>
          </mxGeometry>
        </mxCell>
        <mxCell id="l8vhdtD7TwplGJHoD4nW-118" value="" style="endArrow=none;html=1;rounded=0;exitX=0.5;exitY=0;exitDx=0;exitDy=0;" edge="1" parent="1" target="l8vhdtD7TwplGJHoD4nW-120">
          <mxGeometry width="50" height="50" relative="1" as="geometry">
            <mxPoint x="501.97" y="2720" as="sourcePoint" />
            <mxPoint x="561.97" y="2800" as="targetPoint" />
          </mxGeometry>
        </mxCell>
        <mxCell id="l8vhdtD7TwplGJHoD4nW-119" style="edgeStyle=orthogonalEdgeStyle;rounded=0;orthogonalLoop=1;jettySize=auto;html=1;exitX=1;exitY=0.5;exitDx=0;exitDy=0;entryX=0.5;entryY=0;entryDx=0;entryDy=0;" edge="1" parent="1" source="l8vhdtD7TwplGJHoD4nW-120">
          <mxGeometry relative="1" as="geometry">
            <mxPoint x="507.97" y="2830" as="targetPoint" />
            <Array as="points">
              <mxPoint x="627.97" y="2625" />
              <mxPoint x="627.97" y="2800" />
              <mxPoint x="507.97" y="2800" />
            </Array>
          </mxGeometry>
        </mxCell>
        <mxCell id="l8vhdtD7TwplGJHoD4nW-120" value="for (int i = 0; i &lt; n; i++)" style="shape=hexagon;perimeter=hexagonPerimeter2;whiteSpace=wrap;html=1;fixedSize=1;" vertex="1" parent="1">
          <mxGeometry x="424.97" y="2610" width="150" height="30" as="geometry" />
        </mxCell>
        <mxCell id="l8vhdtD7TwplGJHoD4nW-121" value="for (int j = 0; j &lt; m; j++)" style="shape=hexagon;perimeter=hexagonPerimeter2;whiteSpace=wrap;html=1;fixedSize=1;" vertex="1" parent="1">
          <mxGeometry x="421.97" y="2680" width="160" height="30" as="geometry" />
        </mxCell>
        <mxCell id="l8vhdtD7TwplGJHoD4nW-122" value="" style="endArrow=none;html=1;rounded=0;entryX=0.5;entryY=1;entryDx=0;entryDy=0;exitX=0;exitY=0.5;exitDx=0;exitDy=0;" edge="1" parent="1" source="l8vhdtD7TwplGJHoD4nW-121">
          <mxGeometry width="50" height="50" relative="1" as="geometry">
            <mxPoint x="511.97" y="2850" as="sourcePoint" />
            <mxPoint x="501.97" y="2750" as="targetPoint" />
            <Array as="points">
              <mxPoint x="381.97" y="2695" />
              <mxPoint x="381.97" y="2760" />
              <mxPoint x="501.97" y="2760" />
            </Array>
          </mxGeometry>
        </mxCell>
        <mxCell id="l8vhdtD7TwplGJHoD4nW-123" value="" style="endArrow=none;html=1;rounded=0;entryX=1;entryY=0.5;entryDx=0;entryDy=0;exitX=0;exitY=0.5;exitDx=0;exitDy=0;" edge="1" parent="1" source="l8vhdtD7TwplGJHoD4nW-120" target="l8vhdtD7TwplGJHoD4nW-121">
          <mxGeometry width="50" height="50" relative="1" as="geometry">
            <mxPoint x="511.97" y="2850" as="sourcePoint" />
            <mxPoint x="561.97" y="2800" as="targetPoint" />
            <Array as="points">
              <mxPoint x="351.97" y="2625" />
              <mxPoint x="351.97" y="2780" />
              <mxPoint x="611.97" y="2780" />
              <mxPoint x="611.97" y="2695" />
            </Array>
          </mxGeometry>
        </mxCell>
        <mxCell id="l8vhdtD7TwplGJHoD4nW-124" value="cout &lt;&lt; endl;" style="shape=parallelogram;perimeter=parallelogramPerimeter;whiteSpace=wrap;html=1;fixedSize=1;" vertex="1" parent="1">
          <mxGeometry x="441.97" y="2650" width="120" height="20" as="geometry" />
        </mxCell>
        <mxCell id="l8vhdtD7TwplGJHoD4nW-125" value="cout&amp;lt;&amp;lt;mas[i][j]&amp;lt;&amp;lt;&#39; &#39;;" style="shape=parallelogram;perimeter=parallelogramPerimeter;whiteSpace=wrap;html=1;fixedSize=1;" vertex="1" parent="1">
          <mxGeometry x="426.97" y="2720" width="150" height="30" as="geometry" />
        </mxCell>
        <mxCell id="l8vhdtD7TwplGJHoD4nW-126" value="" style="endArrow=classic;html=1;rounded=0;entryX=0;entryY=0.5;entryDx=0;entryDy=0;" edge="1" parent="1" target="l8vhdtD7TwplGJHoD4nW-120">
          <mxGeometry width="50" height="50" relative="1" as="geometry">
            <mxPoint x="357.97" y="2625" as="sourcePoint" />
            <mxPoint x="401.97" y="2580" as="targetPoint" />
          </mxGeometry>
        </mxCell>
        <mxCell id="l8vhdtD7TwplGJHoD4nW-127" value="" style="endArrow=classic;html=1;rounded=0;entryX=0;entryY=0.5;entryDx=0;entryDy=0;" edge="1" parent="1" target="l8vhdtD7TwplGJHoD4nW-121">
          <mxGeometry width="50" height="50" relative="1" as="geometry">
            <mxPoint x="387.97" y="2695" as="sourcePoint" />
            <mxPoint x="477.97" y="2690" as="targetPoint" />
          </mxGeometry>
        </mxCell>
        <mxCell id="l8vhdtD7TwplGJHoD4nW-128" value="return 0;" style="ellipse;whiteSpace=wrap;html=1;" vertex="1" parent="1">
          <mxGeometry x="473.97" y="2830" width="70" height="30" as="geometry" />
        </mxCell>
        <mxCell id="l8vhdtD7TwplGJHoD4nW-129" value="{" style="text;html=1;align=center;verticalAlign=middle;whiteSpace=wrap;rounded=0;" vertex="1" parent="1">
          <mxGeometry x="422" y="40" width="60" height="30" as="geometry" />
        </mxCell>
        <mxCell id="l8vhdtD7TwplGJHoD4nW-130" value="{" style="text;html=1;align=center;verticalAlign=middle;whiteSpace=wrap;rounded=0;" vertex="1" parent="1">
          <mxGeometry x="379" y="440" width="60" height="30" as="geometry" />
        </mxCell>
        <mxCell id="l8vhdtD7TwplGJHoD4nW-131" value="{" style="text;html=1;align=center;verticalAlign=middle;whiteSpace=wrap;rounded=0;" vertex="1" parent="1">
          <mxGeometry x="360" y="480" width="60" height="30" as="geometry" />
        </mxCell>
        <mxCell id="l8vhdtD7TwplGJHoD4nW-132" value="}" style="text;html=1;align=center;verticalAlign=middle;whiteSpace=wrap;rounded=0;" vertex="1" parent="1">
          <mxGeometry x="590" y="430" width="60" height="30" as="geometry" />
        </mxCell>
        <mxCell id="l8vhdtD7TwplGJHoD4nW-133" value="}" style="text;html=1;align=center;verticalAlign=middle;whiteSpace=wrap;rounded=0;" vertex="1" parent="1">
          <mxGeometry x="565" y="480" width="60" height="30" as="geometry" />
        </mxCell>
        <mxCell id="l8vhdtD7TwplGJHoD4nW-135" value="{" style="text;html=1;align=center;verticalAlign=middle;whiteSpace=wrap;rounded=0;" vertex="1" parent="1">
          <mxGeometry x="375" y="620" width="60" height="30" as="geometry" />
        </mxCell>
        <mxCell id="l8vhdtD7TwplGJHoD4nW-136" value="{" style="text;html=1;align=center;verticalAlign=middle;whiteSpace=wrap;rounded=0;" vertex="1" parent="1">
          <mxGeometry x="319" y="680" width="60" height="30" as="geometry" />
        </mxCell>
        <mxCell id="l8vhdtD7TwplGJHoD4nW-137" value="}" style="text;html=1;align=center;verticalAlign=middle;whiteSpace=wrap;rounded=0;" vertex="1" parent="1">
          <mxGeometry x="565" y="690" width="60" height="30" as="geometry" />
        </mxCell>
        <mxCell id="l8vhdtD7TwplGJHoD4nW-138" value="}" style="text;html=1;align=center;verticalAlign=middle;whiteSpace=wrap;rounded=0;" vertex="1" parent="1">
          <mxGeometry x="590" y="610" width="60" height="30" as="geometry" />
        </mxCell>
        <mxCell id="l8vhdtD7TwplGJHoD4nW-139" value="{" style="text;html=1;align=center;verticalAlign=middle;whiteSpace=wrap;rounded=0;" vertex="1" parent="1">
          <mxGeometry x="420" y="880" width="60" height="30" as="geometry" />
        </mxCell>
        <mxCell id="l8vhdtD7TwplGJHoD4nW-140" value="}" style="text;html=1;align=center;verticalAlign=middle;whiteSpace=wrap;rounded=0;" vertex="1" parent="1">
          <mxGeometry x="577" y="850" width="60" height="30" as="geometry" />
        </mxCell>
        <mxCell id="l8vhdtD7TwplGJHoD4nW-141" value="1" style="text;html=1;align=center;verticalAlign=middle;whiteSpace=wrap;rounded=0;" vertex="1" parent="1">
          <mxGeometry x="368.5" y="900" width="60" height="30" as="geometry" />
        </mxCell>
        <mxCell id="l8vhdtD7TwplGJHoD4nW-142" value="0" style="text;html=1;align=center;verticalAlign=middle;whiteSpace=wrap;rounded=0;" vertex="1" parent="1">
          <mxGeometry x="530" y="900" width="60" height="30" as="geometry" />
        </mxCell>
        <mxCell id="l8vhdtD7TwplGJHoD4nW-143" value="1" style="text;html=1;align=center;verticalAlign=middle;whiteSpace=wrap;rounded=0;" vertex="1" parent="1">
          <mxGeometry x="373" y="1070" width="60" height="30" as="geometry" />
        </mxCell>
        <mxCell id="l8vhdtD7TwplGJHoD4nW-144" value="0" style="text;html=1;align=center;verticalAlign=middle;whiteSpace=wrap;rounded=0;" vertex="1" parent="1">
          <mxGeometry x="544" y="1070" width="60" height="30" as="geometry" />
        </mxCell>
        <mxCell id="l8vhdtD7TwplGJHoD4nW-145" value="" style="endArrow=none;html=1;rounded=0;entryX=0.5;entryY=1;entryDx=0;entryDy=0;" edge="1" parent="1" target="l8vhdtD7TwplGJHoD4nW-75">
          <mxGeometry width="50" height="50" relative="1" as="geometry">
            <mxPoint x="480" y="1510" as="sourcePoint" />
            <mxPoint x="350" y="1560" as="targetPoint" />
            <Array as="points">
              <mxPoint x="390" y="1510" />
            </Array>
          </mxGeometry>
        </mxCell>
        <mxCell id="l8vhdtD7TwplGJHoD4nW-146" value="" style="endArrow=none;html=1;rounded=0;entryX=1;entryY=0.5;entryDx=0;entryDy=0;" edge="1" parent="1" target="l8vhdtD7TwplGJHoD4nW-74">
          <mxGeometry width="50" height="50" relative="1" as="geometry">
            <mxPoint x="480" y="1510" as="sourcePoint" />
            <mxPoint x="350" y="1560" as="targetPoint" />
            <Array as="points">
              <mxPoint x="540" y="1510" />
              <mxPoint x="540" y="1425" />
            </Array>
          </mxGeometry>
        </mxCell>
        <mxCell id="l8vhdtD7TwplGJHoD4nW-147" value="" style="endArrow=classic;html=1;rounded=0;entryX=0;entryY=0.5;entryDx=0;entryDy=0;" edge="1" parent="1" target="l8vhdtD7TwplGJHoD4nW-70">
          <mxGeometry width="50" height="50" relative="1" as="geometry">
            <mxPoint x="480" y="1510" as="sourcePoint" />
            <mxPoint x="350" y="1560" as="targetPoint" />
            <Array as="points">
              <mxPoint x="480" y="1530" />
              <mxPoint x="340" y="1530" />
              <mxPoint x="340" y="1360" />
            </Array>
          </mxGeometry>
        </mxCell>
        <mxCell id="l8vhdtD7TwplGJHoD4nW-148" value="" style="endArrow=classic;html=1;rounded=0;entryX=0.5;entryY=0;entryDx=0;entryDy=0;exitX=1;exitY=0.5;exitDx=0;exitDy=0;" edge="1" parent="1" source="l8vhdtD7TwplGJHoD4nW-70" target="l8vhdtD7TwplGJHoD4nW-79">
          <mxGeometry width="50" height="50" relative="1" as="geometry">
            <mxPoint x="300" y="1720" as="sourcePoint" />
            <mxPoint x="350" y="1670" as="targetPoint" />
            <Array as="points">
              <mxPoint x="570" y="1360" />
              <mxPoint x="570" y="1540" />
            </Array>
          </mxGeometry>
        </mxCell>
        <mxCell id="l8vhdtD7TwplGJHoD4nW-149" value="" style="endArrow=classic;html=1;rounded=0;exitX=1;exitY=0.5;exitDx=0;exitDy=0;entryX=0.586;entryY=0.115;entryDx=0;entryDy=0;entryPerimeter=0;" edge="1" parent="1" source="l8vhdtD7TwplGJHoD4nW-63" target="l8vhdtD7TwplGJHoD4nW-91">
          <mxGeometry width="50" height="50" relative="1" as="geometry">
            <mxPoint x="300" y="1610" as="sourcePoint" />
            <mxPoint x="350" y="1560" as="targetPoint" />
            <Array as="points">
              <mxPoint x="600" y="1260" />
              <mxPoint x="590" y="1840" />
              <mxPoint x="485" y="1840" />
            </Array>
          </mxGeometry>
        </mxCell>
        <mxCell id="l8vhdtD7TwplGJHoD4nW-150" value="{" style="text;html=1;align=center;verticalAlign=middle;whiteSpace=wrap;rounded=0;" vertex="1" parent="1">
          <mxGeometry x="398" y="1270" width="60" height="30" as="geometry" />
        </mxCell>
        <mxCell id="l8vhdtD7TwplGJHoD4nW-151" value="{" style="text;html=1;align=center;verticalAlign=middle;whiteSpace=wrap;rounded=0;" vertex="1" parent="1">
          <mxGeometry x="411.5" y="1380" width="60" height="30" as="geometry" />
        </mxCell>
        <mxCell id="l8vhdtD7TwplGJHoD4nW-152" value="}" style="text;html=1;align=center;verticalAlign=middle;whiteSpace=wrap;rounded=0;" vertex="1" parent="1">
          <mxGeometry x="582" y="1260" width="60" height="30" as="geometry" />
        </mxCell>
        <mxCell id="l8vhdtD7TwplGJHoD4nW-153" value="}" style="text;html=1;align=center;verticalAlign=middle;whiteSpace=wrap;rounded=0;" vertex="1" parent="1">
          <mxGeometry x="555" y="1360" width="60" height="30" as="geometry" />
        </mxCell>
        <mxCell id="l8vhdtD7TwplGJHoD4nW-154" value="1" style="text;html=1;align=center;verticalAlign=middle;whiteSpace=wrap;rounded=0;" vertex="1" parent="1">
          <mxGeometry x="384" y="1400" width="60" height="30" as="geometry" />
        </mxCell>
        <mxCell id="l8vhdtD7TwplGJHoD4nW-155" value="0" style="text;html=1;align=center;verticalAlign=middle;whiteSpace=wrap;rounded=0;" vertex="1" parent="1">
          <mxGeometry x="504" y="1400" width="60" height="30" as="geometry" />
        </mxCell>
        <mxCell id="l8vhdtD7TwplGJHoD4nW-156" value="1" style="text;html=1;align=center;verticalAlign=middle;whiteSpace=wrap;rounded=0;" vertex="1" parent="1">
          <mxGeometry x="382.5" y="1540" width="60" height="30" as="geometry" />
        </mxCell>
        <mxCell id="l8vhdtD7TwplGJHoD4nW-157" value="0" style="text;html=1;align=center;verticalAlign=middle;whiteSpace=wrap;rounded=0;" vertex="1" parent="1">
          <mxGeometry x="493" y="1540" width="60" height="30" as="geometry" />
        </mxCell>
        <mxCell id="l8vhdtD7TwplGJHoD4nW-158" value="{" style="text;html=1;align=center;verticalAlign=middle;whiteSpace=wrap;rounded=0;" vertex="1" parent="1">
          <mxGeometry x="300" y="1640" width="60" height="30" as="geometry" />
        </mxCell>
        <mxCell id="l8vhdtD7TwplGJHoD4nW-159" value="}" style="text;html=1;align=center;verticalAlign=middle;whiteSpace=wrap;rounded=0;" vertex="1" parent="1">
          <mxGeometry x="442.5" y="1620" width="60" height="30" as="geometry" />
        </mxCell>
        <mxCell id="l8vhdtD7TwplGJHoD4nW-160" value="{" style="text;html=1;align=center;verticalAlign=middle;whiteSpace=wrap;rounded=0;" vertex="1" parent="1">
          <mxGeometry x="390" y="1930" width="60" height="30" as="geometry" />
        </mxCell>
        <mxCell id="l8vhdtD7TwplGJHoD4nW-161" value="{" style="text;html=1;align=center;verticalAlign=middle;whiteSpace=wrap;rounded=0;" vertex="1" parent="1">
          <mxGeometry x="384" y="2000" width="60" height="30" as="geometry" />
        </mxCell>
        <mxCell id="l8vhdtD7TwplGJHoD4nW-162" value="}" style="text;html=1;align=center;verticalAlign=middle;whiteSpace=wrap;rounded=0;" vertex="1" parent="1">
          <mxGeometry x="604" y="1920" width="60" height="30" as="geometry" />
        </mxCell>
        <mxCell id="l8vhdtD7TwplGJHoD4nW-163" value="}" style="text;html=1;align=center;verticalAlign=middle;whiteSpace=wrap;rounded=0;" vertex="1" parent="1">
          <mxGeometry x="575" y="1990" width="60" height="30" as="geometry" />
        </mxCell>
        <mxCell id="l8vhdtD7TwplGJHoD4nW-166" value="" style="endArrow=classic;html=1;rounded=0;exitX=1;exitY=0.5;exitDx=0;exitDy=0;entryX=0;entryY=0.5;entryDx=0;entryDy=0;" edge="1" parent="1" source="l8vhdtD7TwplGJHoD4nW-106" target="l8vhdtD7TwplGJHoD4nW-104">
          <mxGeometry width="50" height="50" relative="1" as="geometry">
            <mxPoint x="300" y="2390" as="sourcePoint" />
            <mxPoint x="350" y="2340" as="targetPoint" />
            <Array as="points">
              <mxPoint x="660" y="2265" />
              <mxPoint x="660" y="2540" />
              <mxPoint x="210" y="2540" />
              <mxPoint x="210" y="2200" />
            </Array>
          </mxGeometry>
        </mxCell>
        <mxCell id="l8vhdtD7TwplGJHoD4nW-167" value="" style="endArrow=classic;html=1;rounded=0;exitX=1;exitY=0.5;exitDx=0;exitDy=0;entryX=0.5;entryY=0;entryDx=0;entryDy=0;" edge="1" parent="1" source="l8vhdtD7TwplGJHoD4nW-104" target="l8vhdtD7TwplGJHoD4nW-120">
          <mxGeometry width="50" height="50" relative="1" as="geometry">
            <mxPoint x="300" y="2390" as="sourcePoint" />
            <mxPoint x="350" y="2340" as="targetPoint" />
            <Array as="points">
              <mxPoint x="700" y="2200" />
              <mxPoint x="700" y="2550" />
              <mxPoint x="500" y="2550" />
            </Array>
          </mxGeometry>
        </mxCell>
        <mxCell id="l8vhdtD7TwplGJHoD4nW-116" value="cout &lt;&lt; endl;" style="shape=parallelogram;perimeter=parallelogramPerimeter;whiteSpace=wrap;html=1;fixedSize=1;" vertex="1" parent="1">
          <mxGeometry x="445" y="2560" width="110" height="30" as="geometry" />
        </mxCell>
        <mxCell id="l8vhdtD7TwplGJHoD4nW-168" value="{" style="text;html=1;align=center;verticalAlign=middle;whiteSpace=wrap;rounded=0;" vertex="1" parent="1">
          <mxGeometry x="385" y="2210" width="60" height="30" as="geometry" />
        </mxCell>
        <mxCell id="l8vhdtD7TwplGJHoD4nW-169" value="{" style="text;html=1;align=center;verticalAlign=middle;whiteSpace=wrap;rounded=0;" vertex="1" parent="1">
          <mxGeometry x="403" y="2290" width="60" height="30" as="geometry" />
        </mxCell>
        <mxCell id="l8vhdtD7TwplGJHoD4nW-170" value="}" style="text;html=1;align=center;verticalAlign=middle;whiteSpace=wrap;rounded=0;" vertex="1" parent="1">
          <mxGeometry x="642" y="2270" width="60" height="30" as="geometry" />
        </mxCell>
        <mxCell id="l8vhdtD7TwplGJHoD4nW-171" value="}" style="text;html=1;align=center;verticalAlign=middle;whiteSpace=wrap;rounded=0;" vertex="1" parent="1">
          <mxGeometry x="690" y="2210" width="60" height="30" as="geometry" />
        </mxCell>
        <mxCell id="l8vhdtD7TwplGJHoD4nW-172" value="}" style="text;html=1;align=center;verticalAlign=middle;whiteSpace=wrap;rounded=0;" vertex="1" parent="1">
          <mxGeometry x="530" y="2860" width="60" height="30" as="geometry" />
        </mxCell>
        <mxCell id="l8vhdtD7TwplGJHoD4nW-173" value="}" style="text;html=1;align=center;verticalAlign=middle;whiteSpace=wrap;rounded=0;" vertex="1" parent="1">
          <mxGeometry x="625" y="2630" width="60" height="30" as="geometry" />
        </mxCell>
        <mxCell id="l8vhdtD7TwplGJHoD4nW-174" value="}" style="text;html=1;align=center;verticalAlign=middle;whiteSpace=wrap;rounded=0;" vertex="1" parent="1">
          <mxGeometry x="590" y="2690" width="60" height="30" as="geometry" />
        </mxCell>
        <mxCell id="l8vhdtD7TwplGJHoD4nW-175" value="{" style="text;html=1;align=center;verticalAlign=middle;whiteSpace=wrap;rounded=0;" vertex="1" parent="1">
          <mxGeometry x="404" y="2630" width="60" height="30" as="geometry" />
        </mxCell>
        <mxCell id="l8vhdtD7TwplGJHoD4nW-176" value="{" style="text;html=1;align=center;verticalAlign=middle;whiteSpace=wrap;rounded=0;" vertex="1" parent="1">
          <mxGeometry x="395" y="2700" width="60" height="30" as="geometry" />
        </mxCell>
      </root>
    </mxGraphModel>
  </diagram>
</mxfile>
